<?xml version="1.0" encoding="iso-8859-1"?>
<!-- Uploaded to: SVG Repo, www.svgrepo.com, Generator: SVG Repo Mixer Tools -->
<!DOCTYPE svg PUBLIC "-//W3C//DTD SVG 1.1//EN" "http://www.w3.org/Graphics/SVG/1.1/DTD/svg11.dtd">
<svg fill="#000000" height="800px" width="800px" version="1.1" id="Capa_1" xmlns="http://www.w3.org/2000/svg" xmlns:xlink="http://www.w3.org/1999/xlink" 
	 viewBox="0 0 395.665 395.665" xml:space="preserve">
<g>
	<circle cx="139.731" cy="197.832" r="19.5"/>
	<circle cx="205.833" cy="197.832" r="19.5"/>
	<circle cx="271.934" cy="197.832" r="19.5"/>
	<path d="M338.143,90.964c-35.557-27.021-82.553-41.901-132.326-41.901S109.05,63.943,73.493,90.964
		c-37.092,28.187-57.52,66.14-57.52,106.869c0,19.5,4.654,38.322,13.856,56.084l-28.33,66.565
		c-2.467,5.798-1.861,12.447,1.615,17.703c3.475,5.256,9.355,8.418,15.656,8.418c0,0,185.973,0,187.047,0
		c49.773,0,96.768-14.881,132.326-41.901c37.094-28.187,57.521-66.14,57.521-106.869S375.237,119.15,338.143,90.964z
		 M345.593,237.012c-7.127,13.238-17.773,25.297-31.65,35.84c-28.641,21.764-67.041,33.75-108.125,33.75
		c-0.836,0-154.939,0-154.939,0l15.758-37.022l7.377-17.335l-8.666-16.728c-6.219-12.007-9.373-24.686-9.373-37.685
		c0-13.58,3.389-26.762,10.072-39.18c7.125-13.238,17.773-25.297,31.648-35.841c28.639-21.763,67.039-33.749,108.123-33.749
		c41.086,0,79.486,11.986,108.125,33.749c13.877,10.544,24.523,22.603,31.65,35.841c6.684,12.418,10.072,25.6,10.072,39.18
		S352.276,224.594,345.593,237.012z"/>
</g>
</svg>