<svg xmlns="http://www.w3.org/2000/svg" shape-rendering="geometricPrecision" text-rendering="geometricPrecision" image-rendering="optimizeQuality" fill-rule="evenodd" clip-rule="evenodd" viewBox="0 0 512 352.427"><path d="M279.489 15.177L466.214.125c24.994-2.015 48.139 20.654 45.593 45.592l-15.052 147.386c-2.546 24.936-20.527 45.588-45.592 45.588h-49.425l-70.849 57.68 5.121-57.68h-44.105v3.584c0 28.873-23.633 52.494-52.498 52.494H188.4l4.428 49.869a6.883 6.883 0 01-11.167 6.245l-68.927-56.114H67.732c-14.135 0-26.321-5.651-35.447-14.776-9.431-9.431-15.525-22.607-16.997-37.017L.236 95.59a44.051 44.051 0 01-.098-8.022c1.866-23.151 21.602-42.55 44.527-45.017l.227-.028a45.733 45.733 0 018.327-.105l180.838 14.577c1.949-23.143 21.709-39.905 45.432-41.818zm-1.395 223.491c-24.431-.744-44.198-20.957-44.198-45.565V70.827L52.14 56.176a32.117 32.117 0 00-5.845.051l-.156.014c-16.353 1.735-30.91 15.863-32.244 32.406a30.561 30.561 0 00.044 5.54l15.052 147.386c1.147 11.225 5.829 21.424 13.06 28.655 6.626 6.626 15.457 10.729 25.681 10.729h47.423c1.849 0 3.528.727 4.768 1.911l57.789 47.046-3.681-41.457a6.878 6.878 0 016.851-7.471v-.029h58.525c21.271 0 38.687-17.406 38.687-38.682v-3.607zM91.539 115.33h42.066v-11.853h18.792v11.853h42.22v19.46h-8.668c-1.563 12.293-4.999 22.422-10.839 33.339-4.941 9.222-11.319 18.106-18.726 26.62 11.821 14.139 26.498 26.439 43.971 37.651l-9.666 15.066c-18.344-11.77-33.924-24.73-46.727-39.658-11.453 11.079-24.464 21.399-38.092 30.825l-10.16-14.704c13.487-9.331 26.298-19.523 37.322-30.39-10.16-14.865-17.94-31.548-23.325-50.733l17.241-4.834c4.414 15.737 10.604 29.589 18.561 41.987 5.427-6.571 10.12-13.314 13.828-20.238 4.548-8.506 6.991-15.541 8.531-24.931H91.539v-19.46zm309.049 41.128h-56.383l-7.376 25.17h-27.78c12.027-31.83 25.914-70.051 37.946-101.897 4.332-11.503 9.264-30.564 25.023-30.564 16.336 0 21.761 17.464 26.306 29.529l38.523 103.452h-28.654l-7.605-25.69zm-6.019-24.476L372.46 74.279l-22.17 57.703h44.279z"/></svg>