<?xml version="1.0" encoding="UTF-8"?>
<svg version="1.1" xmlns="http://www.w3.org/2000/svg" width="512" height="512">
<path d="M0 0 C0.69351563 0.42410156 1.38703125 0.84820313 2.1015625 1.28515625 C9.80650632 6.46507167 14.56107632 13.91714268 16.40234375 22.98046875 C17.43733993 29.5509501 17.01630116 36.96739768 14 43 C14.763125 43.20625 15.52625 43.4125 16.3125 43.625 C36.29933478 51.07771805 50.99443819 67.03504187 60.23828125 85.91796875 C65.6150153 97.79341117 70.66811315 114.73558038 66.08984375 127.546875 C65 129.5 65 129.5 63 132 C63.94101562 132.02578125 64.88203125 132.0515625 65.8515625 132.078125 C78.53859701 132.65600235 78.53859701 132.65600235 83 137 C86.62896076 141.5529397 87.65713071 145.09321428 87.5 150.8125 C87.48718994 151.51955078 87.47437988 152.22660156 87.46118164 152.95507812 C87.07911481 162.83212932 83.0107971 169.26413612 76 176 C69.43102347 181.09430833 63.07378284 182.31821389 55 183 C54.87044922 184.50626953 54.87044922 184.50626953 54.73828125 186.04296875 C52.90167781 204.87452306 45.46398474 220.4253152 31 233 C30.31260742 233.40202637 29.62521484 233.80405273 28.91699219 234.21826172 C26.73385948 235.89036475 26.73385948 235.89036475 26.49829102 238.77148438 C26.50014404 239.86783203 26.50199707 240.96417969 26.50390625 242.09375 C26.50293945 243.88619141 26.50293945 243.88619141 26.50195312 245.71484375 C26.52193359 246.96394531 26.54191406 248.21304688 26.5625 249.5 C26.55541016 250.74910156 26.54832031 251.99820313 26.54101562 253.28515625 C26.19679122 259.27555071 26.19679122 259.27555071 28.19458008 264.64916992 C30.6450643 266.48264243 32.24569162 266.3781941 35.29077148 266.38476562 C36.3729747 266.39487671 37.45517792 266.40498779 38.57017517 266.41540527 C39.7419783 266.41238403 40.91378143 266.40936279 42.12109375 266.40625 C43.33136734 266.41708618 44.54164093 266.42792236 45.78858948 266.43908691 C49.67161327 266.47343131 53.5543442 266.48894441 57.4375 266.5 C62.51980985 266.51464918 67.60147361 266.54856869 72.68359375 266.59375 C73.8371788 266.59072876 74.99076385 266.58770752 76.17930603 266.58459473 C91.40737058 266.72323693 105.95033675 271.10487749 117 282 C126.48498968 293.56556806 131.130581 305.29233962 131.17700195 320.23388672 C131.18357315 321.1566188 131.19014435 322.07935089 131.19691467 323.03004456 C131.21660021 326.07992648 131.22830379 329.1297591 131.23828125 332.1796875 C131.24235678 333.22653843 131.2464323 334.27338936 131.25063133 335.35196304 C131.27147841 340.90000459 131.28578236 346.44802154 131.29516602 351.99609375 C131.30618813 357.6927077 131.34054347 363.3889265 131.38033772 369.08540154 C131.40664691 373.49356753 131.4148708 377.90164173 131.41844749 382.3098793 C131.42328171 384.40757013 131.43480381 386.50525774 131.45348549 388.60287094 C131.63680978 410.56330303 128.0155971 428.69053873 112 445 C101.9344331 453.52648939 89.61708203 459.54509249 78.20838928 466.03356934 C72.12297145 469.49484087 66.06161377 472.99727453 60 476.5 C57.84637195 477.74091628 55.69272605 478.98180159 53.5390625 480.22265625 C49.06810156 482.80122882 44.6058362 485.3941521 40.1484375 487.99609375 C20.71181739 499.32090847 20.71181739 499.32090847 11.625 503.875 C10.99513184 504.19073975 10.36526367 504.50647949 9.71630859 504.83178711 C3.91713911 507.65812946 -0.90938982 508.1772953 -7.31640625 508.23828125 C-8.12810776 508.246353 -8.93980927 508.25442474 -9.77610779 508.26274109 C-11.49500411 508.27655489 -13.21392755 508.28728911 -14.93286133 508.29516602 C-16.67350422 508.30663994 -18.41411321 508.32701841 -20.15454102 508.35668945 C-30.11657168 508.52634063 -38.92060532 508.64251821 -48 504 C-48.92031006 503.53279541 -49.84062012 503.06559082 -50.78881836 502.58422852 C-53.79198408 500.98981229 -56.74101098 499.3217347 -59.6875 497.625 C-60.769104 497.01068115 -61.85070801 496.3963623 -62.96508789 495.76342773 C-72.30927263 490.44046457 -81.59851505 485.02190778 -90.875 479.58203125 C-97.37705379 475.77197091 -103.90662018 472.01036148 -110.4375 468.25 C-112.61339822 466.99369215 -114.78918272 465.73718732 -116.96484375 464.48046875 C-120.6591603 462.34696758 -124.35904364 460.22401529 -128.06640625 458.11328125 C-146.38610982 447.62361562 -159.3365067 436.07013444 -165.55786133 415.14624023 C-167.89815811 405.58163114 -167.43133174 395.77880309 -167.3984375 385.99609375 C-167.40046236 383.86483155 -167.40337722 381.73357003 -167.40713501 379.60231018 C-167.41153798 375.15350698 -167.40519225 370.70488547 -167.39111328 366.25610352 C-167.37401233 360.57838465 -167.3838815 354.90109106 -167.40183067 349.22338772 C-167.41271452 344.8282404 -167.40920128 340.43319252 -167.4014473 336.03804207 C-167.39945854 333.94544485 -167.40185754 331.85283835 -167.40888596 329.760252 C-167.45585342 311.85225802 -165.6496707 295.8337723 -153 282 C-140.11820614 269.91369541 -125.99747595 266.7228817 -108.87890625 266.69140625 C-106.37304423 266.66627791 -103.86718491 266.6408795 -101.36132812 266.61523438 C-97.44181852 266.58635456 -93.52235528 266.56230941 -89.6027832 266.54370117 C-85.79876699 266.522148 -81.99525102 266.48275599 -78.19140625 266.44140625 C-77.01332901 266.44129044 -75.83525177 266.44117462 -74.62147522 266.4410553 C-73.53281662 266.42771652 -72.44415802 266.41437775 -71.32250977 266.40063477 C-70.36449966 266.39556412 -69.40648956 266.39049347 -68.41944885 266.38526917 C-65.57487583 265.93230391 -64.68402909 265.30083006 -63 263 C-61.31681489 254.61735121 -60.20793929 241.7014349 -64.04589844 233.86425781 C-66.24708881 231.13595311 -68.87277832 229.27642496 -71.75 227.3125 C-81.18983622 220.59569346 -87.32602983 208.05522323 -89.39355469 196.87109375 C-90.10887743 192.26257189 -90.6004431 187.64559439 -91 183 C-92.16015625 182.85304687 -92.16015625 182.85304687 -93.34375 182.703125 C-103.83600994 181.19681045 -111.26722941 178.47577211 -118 170 C-121.73915545 163.8360589 -123.21442368 158.39937909 -123.3125 151.1875 C-123.34150391 150.48818359 -123.37050781 149.78886719 -123.40039062 149.06835938 C-123.46304502 143.9162403 -122.34182539 141.10880171 -119 137 C-115.23912363 133.59730233 -112.72596632 132.7937397 -107.7890625 132.8984375 C-106.8913916 132.91310059 -105.9937207 132.92776367 -105.06884766 132.94287109 C-104.38612793 132.96172363 -103.7034082 132.98057617 -103 133 C-103.02094727 132.3922876 -103.04189453 131.7845752 -103.06347656 131.15844727 C-103.8019348 106.34765259 -99.43511036 86.8991864 -84 67 C-83.5359375 66.38382812 -83.071875 65.76765625 -82.59375 65.1328125 C-79.6877067 61.42937926 -77.34669304 59.33302905 -72.6328125 58.6640625 C-66.73420917 58.57218394 -63.49225361 59.08367634 -59 63 C-58.67 63.66 -58.34 64.32 -58 65 C-57.69707031 64.21496094 -57.39414063 63.42992188 -57.08203125 62.62109375 C-53.24652421 53.00282225 -53.24652421 53.00282225 -50 49.1875 C-49.34 48.135625 -48.68 47.08375 -48 46 C-48.97142729 43.04921783 -48.97142729 43.04921783 -50.078125 41.1328125 C-53.23958619 33.81858449 -52.46705903 24.96899825 -50.06640625 17.5625 C-46.20384381 8.28103129 -39.58547514 1.4422694 -30.5 -2.9375 C-21.00572048 -5.9940085 -8.40484812 -5.50603316 0 0 Z " fill="#8993D9" transform="translate(274,4)"/>
<path d="M0 0 C0.69351563 0.42410156 1.38703125 0.84820313 2.1015625 1.28515625 C9.80650632 6.46507167 14.56107632 13.91714268 16.40234375 22.98046875 C17.43733993 29.5509501 17.01630116 36.96739768 14 43 C14.763125 43.20625 15.52625 43.4125 16.3125 43.625 C36.29933478 51.07771805 50.99443819 67.03504187 60.23828125 85.91796875 C65.6150153 97.79341117 70.66811315 114.73558038 66.08984375 127.546875 C65 129.5 65 129.5 63 132 C63.94101562 132.02578125 64.88203125 132.0515625 65.8515625 132.078125 C78.53859701 132.65600235 78.53859701 132.65600235 83 137 C86.62896076 141.5529397 87.65713071 145.09321428 87.5 150.8125 C87.48718994 151.51955078 87.47437988 152.22660156 87.46118164 152.95507812 C87.07911481 162.83212932 83.0107971 169.26413612 76 176 C69.43102347 181.09430833 63.07378284 182.31821389 55 183 C54.87044922 184.50626953 54.87044922 184.50626953 54.73828125 186.04296875 C52.90167781 204.87452306 45.46398474 220.4253152 31 233 C30.31260742 233.40202637 29.62521484 233.80405273 28.91699219 234.21826172 C26.73385948 235.89036475 26.73385948 235.89036475 26.49829102 238.77148438 C26.50014404 239.86783203 26.50199707 240.96417969 26.50390625 242.09375 C26.50293945 243.88619141 26.50293945 243.88619141 26.50195312 245.71484375 C26.52193359 246.96394531 26.54191406 248.21304688 26.5625 249.5 C26.55541016 250.74910156 26.54832031 251.99820313 26.54101562 253.28515625 C26.27258463 259.31230711 26.27258463 259.31230711 28.12597656 264.84887695 C30.88708902 266.5448964 33.19563215 266.43881521 36.41796875 266.51171875 C37.67158203 266.54716797 38.92519531 266.58261719 40.21679688 266.61914062 C41.52712891 266.64169922 42.83746094 266.66425781 44.1875 266.6875 C45.52282013 266.72067666 46.85810832 266.75516666 48.19335938 266.79101562 C51.46215504 266.87362057 54.73067812 266.94273229 58 267 C55.03260311 271.77036651 51.67008363 275.66406056 47.72265625 279.6484375 C47.11546249 280.26465973 46.50826874 280.88088196 45.88267517 281.51577759 C44.59857815 282.81432297 43.31170254 284.11012591 42.0222168 285.40332031 C40.08707977 287.35027018 38.17144092 289.31508308 36.25585938 291.28125 C26.75572544 300.90839435 17.19143072 308.94311203 4 312.9375 C2.783125 313.31777344 1.56625 313.69804687 0.3125 314.08984375 C-16.90537214 318.82069777 -35.68248167 316.93241984 -51.3125 308.3125 C-62.08606391 302.12399527 -70.6546298 292.53195334 -79.38061523 283.8046875 C-81.08625698 282.10127406 -82.79981114 280.40607682 -84.51367188 278.7109375 C-85.60465331 277.62288357 -86.69516629 276.53435967 -87.78515625 275.4453125 C-88.2954689 274.94218536 -88.80578156 274.43905823 -89.33155823 273.92068481 C-91.62449268 271.61268198 -92.95500147 270.1349956 -94 267 C-93.16750732 266.98541748 -92.33501465 266.97083496 -91.47729492 266.95581055 C-88.38510347 266.8947137 -85.29357918 266.82055444 -82.2019043 266.73754883 C-80.2070937 266.68798681 -78.21192743 266.65348867 -76.21679688 266.61914062 C-74.33637695 266.5659668 -74.33637695 266.5659668 -72.41796875 266.51171875 C-71.26063232 266.48553467 -70.1032959 266.45935059 -68.91088867 266.43237305 C-66.05342352 266.20758421 -66.05342352 266.20758421 -64.14355469 264.83129883 C-59.76461814 257.8188302 -61.53303257 243.79155796 -63 236 C-64.98117207 231.95441333 -68.10979621 229.7972189 -71.75 227.3125 C-81.18983622 220.59569346 -87.32602983 208.05522323 -89.39355469 196.87109375 C-90.10887743 192.26257189 -90.6004431 187.64559439 -91 183 C-92.16015625 182.85304687 -92.16015625 182.85304687 -93.34375 182.703125 C-103.83600994 181.19681045 -111.26722941 178.47577211 -118 170 C-121.73915545 163.8360589 -123.21442368 158.39937909 -123.3125 151.1875 C-123.35600586 150.13852539 -123.35600586 150.13852539 -123.40039062 149.06835938 C-123.46304502 143.9162403 -122.34182539 141.10880171 -119 137 C-115.23912363 133.59730233 -112.72596632 132.7937397 -107.7890625 132.8984375 C-106.8913916 132.91310059 -105.9937207 132.92776367 -105.06884766 132.94287109 C-104.38612793 132.96172363 -103.7034082 132.98057617 -103 133 C-103.02094727 132.3922876 -103.04189453 131.7845752 -103.06347656 131.15844727 C-103.8019348 106.34765259 -99.43511036 86.8991864 -84 67 C-83.5359375 66.38382812 -83.071875 65.76765625 -82.59375 65.1328125 C-79.6877067 61.42937926 -77.34669304 59.33302905 -72.6328125 58.6640625 C-66.73420917 58.57218394 -63.49225361 59.08367634 -59 63 C-58.67 63.66 -58.34 64.32 -58 65 C-57.69707031 64.21496094 -57.39414063 63.42992188 -57.08203125 62.62109375 C-53.24652421 53.00282225 -53.24652421 53.00282225 -50 49.1875 C-49.34 48.135625 -48.68 47.08375 -48 46 C-48.97142729 43.04921783 -48.97142729 43.04921783 -50.078125 41.1328125 C-53.23958619 33.81858449 -52.46705903 24.96899825 -50.06640625 17.5625 C-46.20384381 8.28103129 -39.58547514 1.4422694 -30.5 -2.9375 C-21.00572048 -5.9940085 -8.40484812 -5.50603316 0 0 Z " fill="#FEDDCE" transform="translate(274,4)"/>
<path d="M0 0 C0.69351563 0.42410156 1.38703125 0.84820313 2.1015625 1.28515625 C9.80650632 6.46507167 14.56107632 13.91714268 16.40234375 22.98046875 C17.43733993 29.5509501 17.01630116 36.96739768 14 43 C14.763125 43.20625 15.52625 43.4125 16.3125 43.625 C36.29933478 51.07771805 50.99443819 67.03504187 60.23828125 85.91796875 C65.78198654 98.16219587 70.11280999 114.13125003 66.30078125 127.44140625 C64.18822012 131.71109731 61.22749146 133.19731534 57 135 C27.74829716 142.18722325 -1.94039811 138.73574053 -27.7109375 123.13671875 C-38.8360088 115.90938621 -48.38467575 106.84606786 -56 96 C-58.25197845 99.37796767 -59.9717779 102.92469374 -61.75 106.5625 C-68.79487716 120.7571645 -77.26166951 135.11681255 -90 145 C-93.7662572 146.03783397 -95.2246631 146.38766845 -98.75 144.625 C-105.93171845 136.24632848 -103.67306456 120.27392532 -103 110 C-101.23258565 94.03942488 -93.74779888 79.56701523 -84 67 C-83.5359375 66.38382812 -83.071875 65.76765625 -82.59375 65.1328125 C-79.6877067 61.42937926 -77.34669304 59.33302905 -72.6328125 58.6640625 C-66.73420917 58.57218394 -63.49225361 59.08367634 -59 63 C-58.67 63.66 -58.34 64.32 -58 65 C-57.69707031 64.21496094 -57.39414063 63.42992188 -57.08203125 62.62109375 C-53.24652421 53.00282225 -53.24652421 53.00282225 -50 49.1875 C-49.34 48.135625 -48.68 47.08375 -48 46 C-48.97142729 43.04921783 -48.97142729 43.04921783 -50.078125 41.1328125 C-53.23958619 33.81858449 -52.46705903 24.96899825 -50.06640625 17.5625 C-46.20384381 8.28103129 -39.58547514 1.4422694 -30.5 -2.9375 C-21.00572048 -5.9940085 -8.40484812 -5.50603316 0 0 Z " fill="#D09080" transform="translate(274,4)"/>
<path d="M0 0 C19.47 0 38.94 0 59 0 C58.5625 20.4375 58.5625 20.4375 58.30688477 26.83374023 C57.9538542 35.76571678 57.9538542 35.76571678 61.34579468 43.70095825 C64.84063286 46.65763561 68.823326 48.44623353 73.03445435 50.16452026 C75.90419403 51.38433897 78.5058901 52.9813706 81.16796875 54.59765625 C83.17362751 55.7540825 85.18015983 56.90899482 87.1875 58.0625 C88.28626465 58.69534912 89.3850293 59.32819824 90.51708984 59.98022461 C98.12075083 64.35579468 105.73784803 68.70760378 113.35794067 73.05447388 C113.94107025 73.3871225 114.52419983 73.71977112 115.125 74.0625 C115.7099826 74.39619598 116.29496521 74.72989197 116.89767456 75.07369995 C126.01541332 80.27653783 135.10850356 85.52001832 144.16186523 90.83422852 C149.30431268 93.85261218 154.46261932 96.83693789 159.65234375 99.7734375 C160.74579102 100.39718262 161.83923828 101.02092773 162.96582031 101.66357422 C165.0548486 102.85436467 167.14898557 104.03625439 169.24902344 105.20751953 C180.56275172 111.68825517 180.56275172 111.68825517 182.734375 118.203125 C182.79674669 126.3738164 178.28340182 131.47634927 172.91796875 137.234375 C163.5128261 146.24975498 151.57917201 150.35106003 138.6875 150.375 C138.00494141 150.39949219 137.32238281 150.42398438 136.61914062 150.44921875 C125.78048762 150.50948929 116.44658323 144.88485872 107.3125 139.625 C106.230896 139.01068115 105.14929199 138.3963623 104.03491211 137.76342773 C94.69072737 132.44046457 85.40148495 127.02190778 76.125 121.58203125 C69.62294621 117.77197091 63.09337982 114.01036148 56.5625 110.25 C54.38660178 108.99369215 52.21081728 107.73718732 50.03515625 106.48046875 C46.3408397 104.34696758 42.64095636 102.22401529 38.93359375 100.11328125 C21.64578445 90.2144672 8.24145791 79.28810421 2.22473145 59.44290161 C0.24301782 52.12289903 -0.40696378 45.45319285 -0.29296875 37.890625 C-0.28994751 36.9197998 -0.28692627 35.94897461 -0.28381348 34.94873047 C-0.26832336 31.38237611 -0.22644258 27.81617537 -0.1875 24.25 C-0.125625 16.2475 -0.06375 8.245 0 0 Z " fill="#FEEBE3" transform="translate(107,362)"/>
<path d="M0 0 C9.96614556 8.79462845 17.55379709 21.25403886 18.55982971 34.77639771 C18.65582011 37.9019154 18.68894414 41.02144521 18.6953125 44.1484375 C18.7052977 45.87597511 18.7052977 45.87597511 18.71548462 47.63841248 C18.725578 50.06987928 18.73030267 52.5013736 18.72998047 54.93286133 C18.73433259 58.60871436 18.77063195 62.283345 18.80859375 65.95898438 C18.91658859 88.36196703 15.70160805 106.43994071 -0.640625 123.08203125 C-10.7061919 131.60852064 -23.02354297 137.62712374 -34.43223572 144.11560059 C-40.51765355 147.57687212 -46.57901123 151.07930578 -52.640625 154.58203125 C-54.79425305 155.82294753 -56.94789895 157.06383284 -59.1015625 158.3046875 C-63.57252344 160.88326007 -68.0347888 163.47618335 -72.4921875 166.078125 C-91.92880761 177.40293972 -91.92880761 177.40293972 -101.015625 181.95703125 C-101.64549316 182.272771 -102.27536133 182.58851074 -102.92431641 182.91381836 C-107.81494152 185.29736327 -111.47150573 186.21583545 -116.890625 186.14453125 C-117.78265625 186.13550781 -118.6746875 186.12648438 -119.59375 186.1171875 C-120.60695313 186.09978516 -120.60695313 186.09978516 -121.640625 186.08203125 C-117.86218213 184.06979075 -113.95806535 182.8460964 -109.8828125 181.5703125 C-100.03732031 177.05087573 -92.51848063 169.42172616 -84.97265625 161.84765625 C-83.88306438 160.76264017 -82.79310629 159.67799173 -81.70280457 158.59368896 C-79.43298032 156.33273704 -77.16882922 154.0662888 -74.90844727 151.79589844 C-72.03591087 148.91187393 -69.14781799 146.04401954 -66.25499439 143.1803627 C-64.0042834 140.94814718 -61.76311801 138.70652957 -59.52448082 136.46221161 C-58.46440016 135.4019794 -57.40128628 134.34476962 -56.33487892 133.29090118 C-45.68420234 122.74795457 -36.5331022 111.32798895 -35.40234375 95.8125 C-35.39236022 93.22011071 -35.45413501 90.66698976 -35.640625 88.08203125 C-36.29546875 88.00726563 -36.9503125 87.9325 -37.625 87.85546875 C-51.31857321 85.88266583 -61.88057772 79.21744324 -70.67578125 68.6328125 C-79.40696694 56.82439363 -81.75129881 44.61465052 -80.640625 30.08203125 C-77.90512849 17.18611914 -70.89572136 6.29987357 -60.640625 -1.91796875 C-41.3766974 -14.38088258 -18.21677921 -14.52491715 0 0 Z " fill="#FEEBE3" transform="translate(386.640625,325.91796875)"/>
<path d="M0 0 C3.50434706 3.43551167 6.76450308 6.9933122 10 10.6875 C25.1837448 27.46953373 45.60934964 38.33471234 68.0234375 41.640625 C70 42 70 42 71 43 C72.37974044 68.28454575 69.65962343 90.98790322 52.6875 110.68359375 C39.49611158 124.59096213 22.15674161 135.25997706 3 138 C1.88367188 138.16113281 0.76734375 138.32226562 -0.3828125 138.48828125 C-4.99570053 138.84682359 -8.47761257 138.92770484 -12.5 136.4765625 C-26.54760298 123.3557111 -32.22788388 106.58390197 -34 88 C-34.7734375 87.90203125 -35.546875 87.8040625 -36.34375 87.703125 C-46.83600994 86.19681045 -54.26722941 83.47577211 -61 75 C-64.73915545 68.8360589 -66.21442368 63.39937909 -66.3125 56.1875 C-66.35600586 55.13852539 -66.35600586 55.13852539 -66.40039062 54.06835938 C-66.46305676 48.91527469 -65.33834102 46.11200764 -62 42 C-57.27415257 37.61994629 -53.33871035 37.63002148 -47.1953125 37.859375 C-46.47085938 37.90578125 -45.74640625 37.9521875 -45 38 C-44.85304687 38.92232422 -44.85304687 38.92232422 -44.703125 39.86328125 C-43.8258922 44.86397097 -43.8258922 44.86397097 -41.25 49.125 C-38.05161524 50.3688163 -36.30404388 49.91490453 -33 49 C-30.79308451 47.23504914 -28.9779925 45.59745734 -27.0625 43.5625 C-26.53744873 43.01754883 -26.01239746 42.47259766 -25.47143555 41.91113281 C-14.26056145 30.04751748 -6.30946435 14.96516167 0 0 Z " fill="#FEEBE3" transform="translate(217,99)"/>
<path d="M0 0 C0.17015625 0.67804688 0.3403125 1.35609375 0.515625 2.0546875 C4.55343756 17.56160593 10.64232827 30.09631718 24.7890625 38.6953125 C30.7486967 41.88302382 36.21589661 43.78408925 42.91796875 44.67578125 C45 45 45 45 46 46 C47.76968783 58.79231486 42.81959584 69.92861946 35.4263916 79.94824219 C31.15144854 85.324988 26.33629706 90.1363138 21.484375 94.984375 C20.38084099 96.09503558 19.27759583 97.20598323 18.17462158 98.31719971 C15.87690303 100.62825756 13.57346096 102.93342085 11.26611328 105.23486328 C8.33670864 108.15836781 5.42599801 111.09973808 2.51980209 114.04629135 C0.251462 116.34069827 -2.0284787 118.62330973 -4.31169891 120.9029007 C-5.38875436 121.98162821 -6.46192454 123.06425192 -7.53076935 124.15111542 C-17.70782214 134.48082274 -29.0975192 143.34699607 -44.1328125 144.171875 C-46.76429495 144.18533527 -49.3725114 144.13721894 -52 144 C-49.00995755 142.41088653 -46.02565914 141.30714327 -42.8125 140.25 C-33.49812707 136.87648544 -27.02900726 131.80993353 -21 124 C-20.360625 123.195625 -19.72125 122.39125 -19.0625 121.5625 C-17.49586506 117.78414514 -17.12778239 114.01082746 -18 110 C-20.64114024 106.2275896 -23.16515575 104.00242463 -27.1640625 101.7578125 C-28.19104248 101.17402832 -29.21802246 100.59024414 -30.27612305 99.98876953 C-31.38125244 99.37372559 -32.48638184 98.75868164 -33.625 98.125 C-35.37701029 97.13239517 -37.12901199 96.13977479 -38.88047791 95.14620972 C-40.70095481 94.11516742 -42.523848 93.0885048 -44.34716797 92.0625 C-50.15120743 88.79168334 -55.91822045 85.45665725 -61.6875 82.125 C-62.76773438 81.50246338 -63.84796875 80.87992676 -64.9609375 80.23852539 C-73.02895432 75.58213066 -81.04371036 70.84467142 -89 66 C-83.62482793 59.48467454 -77.71393138 53.53212139 -71.7578125 47.5546875 C-71.22167202 47.01571964 -70.68553154 46.47675179 -70.13314438 45.92145157 C-67.2996267 43.07303119 -64.46331389 40.22743079 -61.62451172 37.38427734 C-58.71062474 34.46489707 -55.80614331 31.53634361 -52.90374947 28.60554314 C-50.65245166 26.33553812 -48.39439237 24.07234992 -46.13448715 21.8109169 C-45.06120502 20.73462954 -43.99039824 19.65586729 -42.92224503 18.57448959 C-30.20248934 5.70846021 -18.55701436 -1.07750406 0 0 Z " fill="#DD636E" transform="translate(306,368)"/>
<path d="M0 0 C0.70125 0.38454346 1.4025 0.76908691 2.125 1.1652832 C26.71015694 15.6111996 26.71015694 15.6111996 54.3046875 15.8984375 C64.70697602 12.7447875 75.21031119 8.6880742 83.73046875 1.7890625 C86 0 86 0 88 0 C88.01458252 0.80219971 88.02916504 1.60439941 88.04418945 2.4309082 C88.11856719 6.05859699 88.21526243 9.68535504 88.3125 13.3125 C88.33505859 14.57513672 88.35761719 15.83777344 88.38085938 17.13867188 C88.41630859 18.34716797 88.45175781 19.55566406 88.48828125 20.80078125 C88.51446533 21.91622314 88.54064941 23.03166504 88.56762695 24.1809082 C88.80751938 26.95207176 88.80751938 26.95207176 90.13085938 28.85546875 C92.88937227 30.5445895 95.20155753 30.43894927 98.41796875 30.51171875 C99.67158203 30.54716797 100.92519531 30.58261719 102.21679688 30.61914062 C103.52712891 30.64169922 104.83746094 30.66425781 106.1875 30.6875 C107.52282013 30.72067666 108.85810832 30.75516666 110.19335938 30.79101562 C113.46215504 30.87362057 116.73067812 30.94273229 120 31 C117.03260311 35.77036651 113.67008363 39.66406056 109.72265625 43.6484375 C109.11546249 44.26465973 108.50826874 44.88088196 107.88267517 45.51577759 C106.59857815 46.81432297 105.31170254 48.11012591 104.0222168 49.40332031 C102.08707977 51.35027018 100.17144092 53.31508308 98.25585938 55.28125 C88.75572544 64.90839435 79.19143072 72.94311203 66 76.9375 C64.783125 77.31777344 63.56625 77.69804687 62.3125 78.08984375 C45.09462786 82.82069777 26.31751833 80.93241984 10.6875 72.3125 C-0.08606391 66.12399527 -8.6546298 56.53195334 -17.38061523 47.8046875 C-19.08625698 46.10127406 -20.79981114 44.40607682 -22.51367188 42.7109375 C-23.60465331 41.62288357 -24.69516629 40.53435967 -25.78515625 39.4453125 C-26.55062523 38.6906218 -26.55062523 38.6906218 -27.33155823 37.92068481 C-29.62449268 35.61268198 -30.95500147 34.1349956 -32 31 C-30.75126099 30.97812622 -30.75126099 30.97812622 -29.47729492 30.95581055 C-26.38510347 30.8947137 -23.29357918 30.82055444 -20.2019043 30.73754883 C-18.2070937 30.68798681 -16.21192743 30.65348867 -14.21679688 30.61914062 C-12.96318359 30.58369141 -11.70957031 30.54824219 -10.41796875 30.51171875 C-9.26063232 30.48553467 -8.1032959 30.45935059 -6.91088867 30.43237305 C-4.05696027 30.20245763 -4.05696027 30.20245763 -2.13085938 28.85546875 C-0.48715777 26.15854901 -0.56206153 23.9438213 -0.48828125 20.80078125 C-0.45283203 19.59228516 -0.41738281 18.38378906 -0.38085938 17.13867188 C-0.35830078 15.87603516 -0.33574219 14.61339844 -0.3125 13.3125 C-0.27833984 12.03826172 -0.24417969 10.76402344 -0.20898438 9.45117188 C-0.12639216 6.30086897 -0.05727665 3.15084843 0 0 Z " fill="#FEEBE3" transform="translate(212,240)"/>
<path d="M0 0 C0.44730469 0.38671875 0.89460938 0.7734375 1.35546875 1.171875 C7.48107183 6.45875825 7.48107183 6.45875825 13.91015625 11.3671875 C20.25441406 15.94453986 26.18964878 21.00660309 28 29 C28.91392996 38.25075449 28.51443454 46.13985044 22.72070312 53.66064453 C16.5162309 60.77481018 9.75653649 67.35218943 3.0625 74 C1.79338627 75.2640885 0.52450411 76.52840956 -0.74414062 77.79296875 C-3.8267632 80.86466724 -6.91250428 83.93320008 -10 87 C-17.45228906 82.95806517 -24.86885441 78.85791963 -32.25 74.6875 C-33.24201416 74.12716064 -34.23402832 73.56682129 -35.25610352 72.98950195 C-43.25154336 68.45704691 -51.15888474 63.7938572 -59 59 C-53.5891373 52.42549848 -47.60290374 46.45711088 -41.58203125 40.44921875 C-40.47663534 39.34314809 -39.37138781 38.23692911 -38.26628113 37.13056946 C-35.96242495 34.82524683 -33.65678947 32.521723 -31.34985352 30.21948242 C-28.39413485 27.26948734 -25.44296483 24.31498881 -22.49309254 21.35914898 C-20.21725385 19.07969905 -17.93904174 16.8026333 -15.66010094 14.52628517 C-14.57051909 13.43736965 -13.4816775 12.34771289 -12.39359474 11.25729942 C-10.87653777 9.73770378 -9.35631399 8.22134875 -7.83520508 6.70581055 C-6.97171951 5.84312057 -6.10823395 4.9804306 -5.21858215 4.09159851 C-3 2 -3 2 0 0 Z " fill="#E18086" transform="translate(276,375)"/>
<path d="M0 0 C0.33 0 0.66 0 1 0 C1.10240734 7.41564985 1.17188319 14.83111375 1.21972656 22.24731445 C1.23969631 24.76398533 1.26688171 27.28061069 1.30175781 29.79711914 C1.60943717 52.58801541 -0.0072723 70.42957103 -15.4453125 88.3984375 C-25.47741007 98.61461026 -39.48086745 105.03206842 -51.79161072 112.03356934 C-57.87702855 115.49484087 -63.93838623 118.99727453 -70 122.5 C-72.15362805 123.74091628 -74.30727395 124.98180159 -76.4609375 126.22265625 C-80.93189844 128.80122882 -85.3941638 131.3941521 -89.8515625 133.99609375 C-109.28818261 145.32090847 -109.28818261 145.32090847 -118.375 149.875 C-119.00486816 150.19073975 -119.63473633 150.50647949 -120.28369141 150.83178711 C-125.17431652 153.21533202 -128.83088073 154.1338042 -134.25 154.0625 C-135.14203125 154.05347656 -136.0340625 154.04445313 -136.953125 154.03515625 C-137.96632813 154.01775391 -137.96632813 154.01775391 -139 154 C-135.22155713 151.9877595 -131.31744035 150.76406515 -127.2421875 149.48828125 C-117.39669531 144.96884448 -109.87785563 137.33969491 -102.33203125 129.765625 C-101.24243938 128.68060892 -100.15248129 127.59596048 -99.06217957 126.51165771 C-96.79235532 124.25070579 -94.52820422 121.98425755 -92.26782227 119.71386719 C-89.39528587 116.82984268 -86.50719299 113.96198829 -83.61436939 111.09833145 C-81.3636584 108.86611593 -79.12249301 106.62449832 -76.88385582 104.38018036 C-75.82377516 103.31994815 -74.76066128 102.26273837 -73.69425392 101.20886993 C-62.96665077 90.58977485 -53.82797729 79.134618 -52.76171875 63.5078125 C-52.75166057 60.65799415 -52.81557442 57.84322767 -53 55 C-52.41734375 55.03480469 -51.8346875 55.06960938 -51.234375 55.10546875 C-37.15073024 55.57049476 -24.181776 50.67409443 -13.84375 41.03515625 C-2.80611544 28.85166556 -0.37018783 15.78851075 0 0 Z " fill="#FEDCCD" transform="translate(404,358)"/>
<path d="M0 0 C0.69351563 0.42410156 1.38703125 0.84820313 2.1015625 1.28515625 C9.80650632 6.46507167 14.56107632 13.91714268 16.40234375 22.98046875 C17.43733993 29.5509501 17.01630116 36.96739768 14 43 C13.32195312 42.80664062 12.64390625 42.61328125 11.9453125 42.4140625 C8.97035631 41.58173404 5.98771788 40.78523355 3 40 C2.22140625 39.78730469 1.4428125 39.57460938 0.640625 39.35546875 C-12.28227918 36.25842792 -28.99376619 36.10536959 -40.5 43.125 C-41.2940625 43.66382813 -42.088125 44.20265625 -42.90625 44.7578125 C-45 46 -45 46 -48 46 C-52.26066274 38.03441313 -53.01905988 29.01964871 -50.9375 20.25 C-47.58374492 9.90298882 -41.3231807 3.57291951 -32.2421875 -2.09765625 C-22.96478893 -6.5699448 -8.52609724 -5.5854637 0 0 Z " fill="#C67C66" transform="translate(274,4)"/>
<path d="M0 0 C2.87602455 -0.10852923 5.74790832 -0.1875515 8.625 -0.25 C9.43324219 -0.28351563 10.24148438 -0.31703125 11.07421875 -0.3515625 C16.56333325 -0.44081639 19.73209504 0.22021321 24 4 C27.77128496 8.44383077 28.65659632 12.11266494 28.5 17.8125 C28.48078491 18.87307617 28.48078491 18.87307617 28.46118164 19.95507812 C28.07911481 29.83212932 24.0107971 36.26413612 17 43 C11.47193071 47.28707414 6.76453533 49.11496289 -0.203125 49.046875 C-1.10192383 49.04010742 -2.00072266 49.03333984 -2.92675781 49.02636719 C-3.61092773 49.01766602 -4.29509766 49.00896484 -5 49 C-4.61907482 43.14604262 -4.22814413 37.29286924 -3.828125 31.44018555 C-3.69356846 29.45110991 -3.56169727 27.46185065 -3.43261719 25.47241211 C-3.24608086 22.60477475 -3.04974068 19.73794726 -2.8515625 16.87109375 C-2.79626373 15.98852402 -2.74096497 15.10595428 -2.68399048 14.19664001 C-2.32728415 9.19330763 -1.56619914 4.76927427 0 0 Z " fill="#FECBBD" transform="translate(333,137)"/>
<path d="M0 0 C0.14695313 0.92232422 0.14695313 0.92232422 0.296875 1.86328125 C1.12596175 6.90493107 1.12596175 6.90493107 3.9375 11 C6.1118245 12.10912994 6.1118245 12.10912994 9 13 C10.46009773 24.99264741 11.45789059 36.93093265 12 49 C2.50083863 49.71392445 -3.97632107 47.74074251 -11.3125 41.625 C-17.28440923 36.05675859 -20.62428723 30.33380316 -21.3359375 22.125 C-21.35955149 20.75014113 -21.3724153 19.37505922 -21.375 18 C-21.41173828 16.97132813 -21.41173828 16.97132813 -21.44921875 15.921875 C-21.47865087 10.78106459 -20.1958301 7.96119343 -17 4 C-11.75945479 -0.85709068 -6.75079884 -0.43243551 0 0 Z " fill="#FEDCCD" transform="translate(172,137)"/>
<path d="M0 0 C4.99517826 1.84032883 7.00496625 4.75306284 9.5625 9.3125 C11.8592983 15.15889568 12.75006148 20.79952745 10.72265625 26.796875 C7.45366518 34.06129959 2.86161358 39.11517528 -4.25 42.75 C-12.22520864 44.15738976 -18.57723472 44.20004884 -25.55078125 39.73046875 C-28.15481184 37.77340228 -29.9136688 36.2216323 -31.4375 33.3125 C-31.4375 29.4987249 -31.28735071 27.28825452 -28.75 24.375 C-25.7316394 22.98818567 -23.72779921 22.9012126 -20.4375 23.3125 C-19.81875 23.8075 -19.2 24.3025 -18.5625 24.8125 C-15.16257355 27.21244808 -12.54240307 26.70344315 -8.4375 26.3125 C-6.27083333 25.47916667 -6.27083333 25.47916667 -5.4375 23.3125 C-4.91441799 17.82013885 -4.99499926 15.61562592 -8.4375 11.3125 C-9.13233656 7.23033522 -8.77418511 5.79202121 -6.375 2.375 C-3.4375 0.3125 -3.4375 0.3125 0 0 Z " fill="#FFDDCE" transform="translate(367.4375,348.6875)"/>
<path d="M0 0 C3.74314112 0.7167717 4.69920156 1.47875409 6.9375 4.5625 C7.49088307 7.61362195 7.40284628 10.61112212 7.328125 13.703125 C7.32246521 14.58530701 7.31680542 15.46748901 7.31097412 16.37640381 C7.28861591 19.18899213 7.23842132 22.00029795 7.1875 24.8125 C7.16743425 26.72133574 7.14918361 28.63019149 7.1328125 30.5390625 C7.088753 35.21403445 7.01972984 39.88804992 6.9375 44.5625 C1.9875 44.5625 -2.9625 44.5625 -8.0625 44.5625 C-8.18631149 39.09993725 -8.27693826 33.63819512 -8.3371582 28.17456055 C-8.36226702 26.31699391 -8.39636134 24.45952573 -8.43969727 22.60229492 C-8.50051124 19.92862642 -8.5287452 17.25626635 -8.55078125 14.58203125 C-8.57658768 13.75476028 -8.6023941 12.92748932 -8.62898254 12.07514954 C-8.6310763 7.74836905 -8.45736663 6.07375358 -5.72338867 2.53393555 C-3.0625 0.5625 -3.0625 0.5625 0 0 Z " fill="#707DD3" transform="translate(159.0625,317.4375)"/>
<path d="M0 0 C0 0.66 0 1.32 0 2 C-3.63 2 -7.26 2 -11 2 C-4.2 -1.4 -4.2 -1.4 0 0 Z " fill="#E2777F" transform="translate(265,510)"/>
</svg>
