<?xml version="1.0" encoding="UTF-8"?>
<svg version="1.1" xmlns="http://www.w3.org/2000/svg" width="512" height="512">
<path d="M0 0 C6.86748942 4.09274622 12.27557336 10.19902504 14.4375 18 C14.77511264 21.49157944 14.72336918 24.93404375 14.625 28.4375 C14.61146484 29.35982422 14.59792969 30.28214844 14.58398438 31.23242188 C14.54890953 33.48890383 14.49976387 35.74413226 14.4375 38 C15.15550781 38.01417969 15.87351563 38.02835938 16.61328125 38.04296875 C47.80443398 39.48017006 76.39560179 55.65225271 97.4375 78.125 C109.11539228 91.73351157 118.77295405 108.32620028 122.4375 126 C123.18773437 125.95359375 123.93796875 125.9071875 124.7109375 125.859375 C133.84529884 125.53725646 140.97689262 127.01302306 148.25 132.75 C154.3077339 138.40769487 158.02857368 145.45426092 158.7734375 153.734375 C159.01484743 164.46385274 157.76301693 173.30740106 150.140625 181.46875 C141.68275926 189.07306966 133.52069787 190.32281159 122.4375 190 C122.32535156 190.57363281 122.21320313 191.14726562 122.09765625 191.73828125 C117.53043322 211.41017653 106.15874851 228.51220129 92.4375 243 C93.95044925 246.70296419 96.1180874 248.7200164 99.125 251.3125 C106.40544226 257.7247286 112.62786543 264.21261749 118.4375 272 C124.84819287 266.72898586 130.62340512 260.90871848 136.4375 255 C135.04116893 251.81440048 133.39192507 249.76056155 130.875 247.375 C127.63108701 244.28620135 126.56951416 242.95710268 125.9375 238.375 C126.00058143 234.69258645 126.858758 233.05333199 129.33813477 230.36328125 C129.97655304 229.66847656 130.61497131 228.97367188 131.2727356 228.2578125 C135.3034407 224.05385555 139.3973837 219.91889207 143.52734375 215.8125 C144.48162993 214.86008388 145.43569188 213.90744305 146.38954163 212.95458984 C148.8745797 210.47333075 151.36260796 207.99509209 153.85131836 205.51751709 C156.40077496 202.97837515 158.94732688 200.43632354 161.49414062 197.89453125 C166.47245631 192.92687118 171.45394371 187.96240314 176.4375 183 C174.94160556 179.84812633 173.41595843 177.78334055 170.875 175.375 C167.63108701 172.28620135 166.56951416 170.95710268 165.9375 166.375 C165.99894944 162.68267238 166.86881716 161.04354299 169.35546875 158.34765625 C169.99081543 157.65607422 170.62616211 156.96449219 171.28076172 156.25195312 C175.22096564 152.13779862 179.21259972 148.08128045 183.25 144.0625 C184.10787109 143.20076172 184.96574219 142.33902344 185.84960938 141.45117188 C186.66880859 140.63326172 187.48800781 139.81535156 188.33203125 138.97265625 C189.07300049 138.23281494 189.81396973 137.49297363 190.57739258 136.73071289 C193.57396716 133.94258883 196.11666337 133.47536916 200.22265625 133.52734375 C204.6301679 134.46792384 207.39353327 137.86525891 210.4375 141 C211.45650391 142.00160156 211.45650391 142.00160156 212.49609375 143.0234375 C214.16159518 144.66548116 215.8068365 146.32347409 217.4375 148 C221.51126031 146.38989473 224.20257069 143.46177729 227.1875 140.375 C227.94740234 139.6015625 227.94740234 139.6015625 228.72265625 138.8125 C229.96553902 137.54616661 231.20215276 136.2736856 232.4375 135 C231.04116893 131.81440048 229.39192507 129.76056155 226.875 127.375 C223.63108701 124.28620135 222.56951416 122.95710268 221.9375 118.375 C221.99894944 114.68267238 222.86881716 113.04354299 225.35546875 110.34765625 C225.99081543 109.65607422 226.62616211 108.96449219 227.28076172 108.25195312 C231.22096564 104.13779862 235.21259972 100.08128045 239.25 96.0625 C240.10787109 95.20076172 240.96574219 94.33902344 241.84960938 93.45117188 C243.0784082 92.22430664 243.0784082 92.22430664 244.33203125 90.97265625 C245.07300049 90.23281494 245.81396973 89.49297363 246.57739258 88.73071289 C249.58196492 85.93514741 252.13812338 85.46137887 256.25596619 85.54402161 C258.90428852 86.09756689 259.98297787 86.97001256 261.96704102 88.7956543 C262.66250031 89.43473724 263.35795959 90.07382019 264.07449341 90.73226929 C268.88930214 95.35294605 273.62634327 100.04603351 278.33984375 104.76953125 C279.46930112 105.89831373 280.59890679 107.02694784 281.72865295 108.15544128 C284.07927288 110.50459656 286.42809853 112.85552695 288.77563477 115.20776367 C291.78734833 118.22521344 294.80358298 121.23809799 297.82114315 124.24969959 C300.14687067 126.57182171 302.47022141 128.89631005 304.79284859 131.22153282 C305.90491884 132.33427036 307.01773298 133.44626497 308.13129997 134.55750465 C309.67972409 136.10339836 311.22492241 137.65244491 312.76928711 139.20239258 C313.64894638 140.08284744 314.52860565 140.96330231 315.43492126 141.87043762 C318.40048867 145.02405184 318.9738335 147.44181973 318.90112305 151.81079102 C318.33049646 154.50526632 317.38026368 155.63504309 315.51953125 157.65234375 C314.88418457 158.34392578 314.24883789 159.03550781 313.59423828 159.74804688 C309.65403436 163.86220138 305.66240028 167.91871955 301.625 171.9375 C300.76712891 172.79923828 299.90925781 173.66097656 299.02539062 174.54882812 C298.20619141 175.36673828 297.38699219 176.18464844 296.54296875 177.02734375 C295.80199951 177.76718506 295.06103027 178.50702637 294.29760742 179.26928711 C291.30357173 182.05504889 288.76795907 182.51068557 284.66796875 182.48828125 C280.29179618 181.530275 277.45894918 178.12864028 274.4375 175 C273.58091797 174.14341797 273.58091797 174.14341797 272.70703125 173.26953125 C272.28808594 172.85058594 271.86914062 172.43164062 271.4375 172 C267.36373969 173.61010527 264.67242931 176.53822271 261.6875 179.625 C260.92759766 180.3984375 260.92759766 180.3984375 260.15234375 181.1875 C258.90946098 182.45383339 257.67284724 183.7263144 256.4375 185 C258.03680434 189.04135587 260.92410409 191.67907152 264 194.625 C270.25317507 200.66364429 270.25317507 200.66364429 270.9375 205.625 C270.87605056 209.31732762 270.00618284 210.95645701 267.51953125 213.65234375 C266.88418457 214.34392578 266.24883789 215.03550781 265.59423828 215.74804688 C261.65403436 219.86220138 257.66240028 223.91871955 253.625 227.9375 C252.76712891 228.79923828 251.90925781 229.66097656 251.02539062 230.54882812 C250.20619141 231.36673828 249.38699219 232.18464844 248.54296875 233.02734375 C247.80199951 233.76718506 247.06103027 234.50702637 246.29760742 235.26928711 C243.30357173 238.05504889 240.76795907 238.51068557 236.66796875 238.48828125 C232.29179618 237.530275 229.45894918 234.12864028 226.4375 231 C225.58091797 230.14341797 225.58091797 230.14341797 224.70703125 229.26953125 C224.28808594 228.85058594 223.86914062 228.43164062 223.4375 228 C219.78654902 229.53659036 217.47532773 231.72575791 214.70068359 234.52563477 C214.24489426 234.98273834 213.78910492 235.43984192 213.31950378 235.91079712 C211.82032229 237.41644788 210.32824472 238.92894464 208.8359375 240.44140625 C207.79320488 241.49041175 206.74995379 242.53890211 205.70620728 243.5868988 C202.96386196 246.34252892 200.2271445 249.1036752 197.49200439 251.86645508 C193.10828479 256.29334756 188.71778259 260.71348843 184.32405472 265.13044548 C182.7894302 266.67530686 181.2582552 268.22352789 179.72738647 269.77210999 C178.79947296 270.70655441 177.87155945 271.64099884 176.91552734 272.60375977 C176.09708344 273.4304567 175.27863953 274.25715363 174.43539429 275.10890198 C171.37165683 278.00886915 168.91019539 278.51146282 164.66796875 278.48828125 C160.29179618 277.530275 157.45894918 274.12864028 154.4375 271 C153.86644531 270.42894531 153.29539062 269.85789062 152.70703125 269.26953125 C152.28808594 268.85058594 151.86914062 268.43164062 151.4375 268 C146.01279659 270.36386722 142.2774131 274.71170975 138.125 278.8125 C136.85172852 280.02389648 136.85172852 280.02389648 135.55273438 281.25976562 C134.75544922 282.04673828 133.95816406 282.83371094 133.13671875 283.64453125 C132.40283936 284.35971924 131.66895996 285.07490723 130.9128418 285.81176758 C129.16272729 287.92081979 129.16272729 287.92081979 129.62915039 290.59423828 C130.61573054 293.53043905 131.86638147 296.26023054 133.1875 299.0625 C138.59831415 311.0728304 142.70352065 325.70865781 142.5 338.9375 C142.49097656 339.70964844 142.48195313 340.48179687 142.47265625 341.27734375 C142.45525391 342.13005859 142.45525391 342.13005859 142.4375 343 C143.0253125 343.24621094 143.613125 343.49242187 144.21875 343.74609375 C151.41263969 347.81165465 155.78175814 357.1709962 157.96801758 364.86767578 C160.26363065 375.29403279 159.34102088 387.56187518 154.4375 397 C154.03660156 397.81210937 153.63570313 398.62421875 153.22265625 399.4609375 C149.78523713 405.77781786 145.13737841 410.81598007 140.23046875 415.99609375 C137.65851644 418.72413453 135.28298454 421.57340798 132.9375 424.5 C129.15460213 429.21491619 125.14889886 433.65793132 120.97851562 438.02929688 C118.78330911 440.36388158 117.46584116 441.91497652 116.4375 445 C117.18 445.70125 117.9225 446.4025 118.6875 447.125 C125.90340297 454.66889856 126.88955892 461.05881567 126.72265625 471.03125 C126.37025219 475.93594216 125.31760279 479.07986009 122.4375 483 C121.86 483.886875 121.2825 484.77375 120.6875 485.6875 C116.34038461 490.1553686 110.86335614 493.82731605 104.51779175 494.14717102 C103.32582184 494.15701523 102.13385193 494.16685944 100.90576172 494.17700195 C100.24678391 494.18357315 99.58780609 494.19014435 98.90885925 494.19691467 C96.72830075 494.21661971 94.5478112 494.22830702 92.3671875 494.23828125 C91.24629416 494.24439454 91.24629416 494.24439454 90.1027565 494.25063133 C86.14370247 494.27148512 82.18468298 494.28578701 78.22558594 494.29516602 C74.15370705 494.30619927 70.08237933 494.34056472 66.0106945 494.38033772 C62.86549936 494.40660257 59.72043324 494.41486677 56.57513809 494.41844749 C55.07535221 494.42329194 53.57557126 494.43484427 52.0758934 494.45348549 C43.79104151 494.55002537 36.6977453 494.40139783 29.4375 490 C28.78651337 489.62164505 28.13552673 489.2432901 27.46481323 488.85346985 C22.42832937 485.79609442 19.00883509 481.25484251 16.4375 476 C16.1075 474.02 15.7775 472.04 15.4375 470 C9.4975 470 3.5575 470 -2.5625 470 C-2.8925 471.98 -3.2225 473.96 -3.5625 476 C-7.73189168 484.1402409 -13.76649061 489.74866505 -22.27627563 493.05410767 C-25.82029431 494.07420238 -28.76708043 494.26689549 -32.45068359 494.29052734 C-33.11170578 494.29724457 -33.77272797 494.30396179 -34.45378113 494.31088257 C-36.62291128 494.32976496 -38.79173045 494.33378164 -40.9609375 494.3359375 C-42.48019535 494.34237189 -43.99945197 494.34910073 -45.51870728 494.35610962 C-48.69772208 494.36805773 -51.87662841 494.37179296 -55.05566406 494.37060547 C-59.1130228 494.37040234 -63.16968062 494.39770835 -67.2268734 494.43214989 C-70.36346583 494.45447484 -73.499891 494.45844132 -76.63655472 494.45738602 C-78.13157187 494.45973341 -79.62659424 494.46850806 -81.12153244 494.48405075 C-89.17199142 494.55992112 -95.64055781 494.51606119 -102.5625 490 C-103.449375 489.4225 -104.33625 488.845 -105.25 488.25 C-110.71077863 482.93680998 -113.65300093 477.08982706 -113.85449219 469.45239258 C-113.92107907 462.50436898 -113.84880119 456.75880602 -109.5625 451 C-108.86125 450.05125 -108.16 449.1025 -107.4375 448.125 C-106.18932526 446.71040196 -104.89648422 445.33398422 -103.5625 444 C-108.22240141 438.15498787 -112.97157628 432.47034922 -118.0625 427 C-123.14657952 421.52653928 -127.89930133 415.83783015 -132.5625 410 C-133.201875 409.24074219 -133.84125 408.48148437 -134.5 407.69921875 C-144.77077743 395.237047 -146.79305901 382.66867102 -145.5625 367 C-144.06287074 359.58754681 -140.42824893 352.78165461 -135.5625 347 C-134.70527344 346.45601563 -133.84804687 345.91203125 -132.96484375 345.3515625 C-129.35013284 341.81326011 -129.50690795 338.19793165 -129.0625 333.3125 C-125.12427817 299.62237925 -108.27200423 270.91052533 -83.5625 248 C-82.24343768 246.9812496 -80.913868 245.97549081 -79.5625 245 C-81.16017645 241.26916213 -83.52434839 238.60080145 -86.1875 235.5625 C-97.265588 222.54750104 -105.90111589 206.77262625 -109.5625 190 C-110.31273437 190.04640625 -111.06296875 190.0928125 -111.8359375 190.140625 C-120.97029884 190.46274354 -128.10189262 188.98697694 -135.375 183.25 C-141.4327339 177.59230513 -145.15357368 170.54573908 -145.8984375 162.265625 C-146.13984743 151.53614726 -144.88801693 142.69259894 -137.265625 134.53125 C-128.80775926 126.92693034 -120.64569787 125.67718841 -109.5625 126 C-109.45035156 125.42636719 -109.33820313 124.85273438 -109.22265625 124.26171875 C-102.85886972 96.85168394 -82.87608716 71.00862321 -59.1328125 56.16015625 C-53.41506081 52.70859405 -47.80370042 49.41106719 -41.5625 47 C-41.58868408 46.17387207 -41.61486816 45.34774414 -41.6418457 44.49658203 C-41.72787775 41.38418213 -41.79013647 38.2723949 -41.8371582 35.15917969 C-41.87419623 33.16820647 -41.93778228 31.17778347 -42.00195312 29.1875 C-42.11870371 19.94085397 -41.03062519 12.79850894 -34.5715332 5.86181641 C-25.42067891 -2.87756368 -11.65311663 -5.29037197 0 0 Z M-23.5625 20 C-26.80524208 26.62647294 -25.29513299 33.86177862 -24.5625 41 C-16.83827951 40.33742578 -9.21449697 39.23535374 -1.5625 38 C-1.01395479 26.33592523 -1.01395479 26.33592523 -6.75 16.5625 C-13.53003021 12.79581655 -18.58655658 14.43168236 -23.5625 20 Z M-20.5625 58 C-16.75475322 76.72142165 -5.57030951 93.38997708 7.4375 107 C5.96028578 110.45201639 3.99955999 112.64961936 1.3125 115.25 C0.58804688 115.95640625 -0.13640625 116.6628125 -0.8828125 117.390625 C-1.43710938 117.92171875 -1.99140625 118.4528125 -2.5625 119 C-6.8533704 117.44606329 -9.13244084 114.18876159 -11.8125 110.6875 C-12.29557617 110.06157959 -12.77865234 109.43565918 -13.27636719 108.79077148 C-23.64093007 95.15165236 -31.1343112 80.21713549 -36.5625 64 C-45.44330948 68.01525961 -52.96778772 72.91094496 -60.5625 79 C-61.21992187 79.50273438 -61.87734375 80.00546875 -62.5546875 80.5234375 C-81.19639838 95.38526231 -93.1733144 120.91670664 -96.5625 144 C-98.45952683 175.78631995 -92.07537105 202.72627217 -70.97045898 227.25756836 C-52.29206943 248.14758063 -25.74496329 260.35413361 2.19750977 261.92553711 C30.77673715 262.91362142 58.28721244 251.7097848 79.19140625 232.33984375 C99.94544373 210.71955079 109.99576992 184.5813896 109.859375 154.77270508 C109.26539702 127.7681995 98.27554587 104.06398944 79.4375 85 C78.47263672 83.92685547 78.47263672 83.92685547 77.48828125 82.83203125 C62.73757971 66.80144237 38.23950703 56.06462977 16.59179688 54.83886719 C-2.20112728 54.45783049 -2.20112728 54.45783049 -20.5625 58 Z M251.0546875 109.1875 C249.69730469 110.5796875 249.69730469 110.5796875 248.3125 112 C247.40242188 112.928125 246.49234375 113.85625 245.5546875 114.8125 C244.85601562 115.534375 244.15734375 116.25625 243.4375 117 C244.89618754 120.35999018 246.74618948 122.55203106 249.33642578 125.12597656 C250.1371048 125.92650452 250.93778381 126.72703247 251.76272583 127.55181885 C252.62735443 128.40612488 253.49198303 129.26043091 254.3828125 130.140625 C255.2678244 131.02280701 256.1528363 131.90498901 257.06466675 132.81390381 C259.41200131 135.15194543 261.76356785 137.48555874 264.11730957 139.81713867 C266.52063927 142.19996526 268.91827767 144.58850348 271.31640625 146.9765625 C276.01821467 151.65631862 280.72568664 156.33031867 285.4375 161 C288.84809403 159.39464713 291.05542484 157.59481099 293.6875 154.875 C294.39390625 154.15054688 295.1003125 153.42609375 295.828125 152.6796875 C296.35921875 152.12539062 296.8903125 151.57109375 297.4375 151 C295.98110224 147.65405979 294.14010396 145.44965533 291.5703125 142.87402344 C290.77608887 142.07349548 289.98186523 141.27296753 289.16357422 140.44818115 C288.30521973 139.59387512 287.44686523 138.73956909 286.5625 137.859375 C285.68223145 136.97719299 284.80196289 136.09501099 283.89501953 135.18609619 C281.55851752 132.84788561 279.21720581 130.51461799 276.87426758 128.18286133 C274.95929237 126.27309251 273.05177599 124.35595907 271.14419556 122.43880844 C268.87180977 120.1574764 266.59183769 117.88375806 264.3125 115.609375 C263.45414551 114.74697205 262.59579102 113.88456909 261.71142578 112.99603271 C260.91720215 112.2081134 260.12297852 111.42019409 259.3046875 110.60839844 C258.60456543 109.90986755 257.90444336 109.21133667 257.18310547 108.49163818 C254.34725477 106.06837401 253.78101004 106.68464652 251.0546875 109.1875 Z M-124.5625 147 C-128.49876932 151.35061345 -129.20133919 154.91777006 -128.9453125 160.6015625 C-128.13680704 165.66709673 -125.48671704 168.25276069 -121.625 171.375 C-118.40419574 173.39059651 -118.40419574 173.39059651 -113.5625 173 C-113.5625 163.1 -113.5625 153.2 -113.5625 143 C-119.1165492 143 -120.36997596 143.61029971 -124.5625 147 Z M126.4375 143 C126.4375 152.9 126.4375 162.8 126.4375 173 C133.89618849 171.93447307 134.63018473 171.80731527 139.4375 167 C142.17394367 162.54510707 142.08060319 158.08051521 141.4375 153 C139.10220799 148.14977814 136.1780686 145.51540375 131.4375 143 C129.7875 143 128.1375 143 126.4375 143 Z M243.92529297 148.28515625 C243.06121826 149.16494141 243.06121826 149.16494141 242.1796875 150.0625 C241.55449219 150.69414062 240.92929687 151.32578125 240.28515625 151.9765625 C239.30869141 152.97816406 239.30869141 152.97816406 238.3125 154 C237.32443359 155.00160156 237.32443359 155.00160156 236.31640625 156.0234375 C234.68555676 157.67792249 233.0595415 159.33688616 231.4375 161 C233.04285287 164.41059403 234.84268901 166.61792484 237.5625 169.25 C238.64917969 170.30960938 238.64917969 170.30960938 239.7578125 171.390625 C240.31210937 171.92171875 240.86640625 172.4528125 241.4375 173 C245.76254836 171.34136495 248.53168825 168.128959 251.6875 164.875 C252.24179687 164.31167969 252.79609375 163.74835938 253.3671875 163.16796875 C254.72854485 161.78313972 256.08364859 160.39216796 257.4375 159 C255.96783642 155.60140297 254.05712486 153.35036291 251.4375 150.75 C250.73625 150.04359375 250.035 149.3371875 249.3125 148.609375 C247.02420423 146.64525447 246.2668965 146.29513349 243.92529297 148.28515625 Z M195.0546875 157.1875 C193.69730469 158.5796875 193.69730469 158.5796875 192.3125 160 C191.40242188 160.928125 190.49234375 161.85625 189.5546875 162.8125 C188.85601562 163.534375 188.15734375 164.25625 187.4375 165 C188.987332 168.70044944 191.24144671 171.04581087 194.07080078 173.86035156 C194.53926422 174.32910706 195.00772766 174.79786255 195.49038696 175.28082275 C197.03316695 176.82221432 198.58289964 178.35640873 200.1328125 179.890625 C201.20656192 180.96064255 202.27986933 182.03110381 203.35275269 183.10198975 C206.17270452 185.91431879 208.99861154 188.72058889 211.82580566 191.52563477 C214.7117137 194.39105523 217.59194257 197.26217168 220.47265625 200.1328125 C226.12206489 205.76079512 231.77777825 211.38238884 237.4375 217 C240.84809403 215.39464713 243.05542484 213.59481099 245.6875 210.875 C246.39390625 210.15054688 247.1003125 209.42609375 247.828125 208.6796875 C248.35921875 208.12539062 248.8903125 207.57109375 249.4375 207 C247.88876424 203.31246439 245.64712524 200.95614716 242.8359375 198.13964844 C242.37068665 197.67089294 241.90543579 197.20213745 241.42608643 196.71917725 C239.89320362 195.17752068 238.35315558 193.64326096 236.8125 192.109375 C235.74368497 191.03921253 234.67516697 189.96875333 233.60693359 188.89801025 C231.37075082 186.65888251 229.13099907 184.4234037 226.88867188 182.19042969 C224.00998304 179.3231626 221.14040216 176.44697384 218.27340698 173.56801987 C216.0706173 171.35801821 213.86310499 169.15278367 211.65411377 166.94898224 C210.59365873 165.8898641 209.53469491 164.82925074 208.47723389 163.76714325 C207.00261748 162.28746951 205.52178062 160.81432254 204.0390625 159.34277344 C203.19682129 158.50212341 202.35458008 157.66147339 201.48681641 156.79534912 C198.46095314 154.14447445 198.02156505 154.46380913 195.0546875 157.1875 Z M187.60250854 196.59448242 C186.86082428 197.34060791 186.11914001 198.0867334 185.35498047 198.85546875 C184.51425995 199.69634033 183.67353943 200.53721191 182.80734253 201.40356445 C181.89896637 202.32226318 180.99059021 203.24096191 180.0546875 204.1875 C179.12528351 205.11973389 178.19587952 206.05196777 177.23831177 207.01245117 C174.76462397 209.49378395 172.29700004 211.98106378 169.83056641 214.46960449 C167.31383716 217.00677356 164.79145356 219.5383071 162.26953125 222.0703125 C157.31995334 227.04135556 152.37675488 232.01870039 147.4375 237 C148.97037586 240.22314687 150.57900688 242.37735598 153.1328125 244.890625 C153.84824219 245.59960938 154.56367188 246.30859375 155.30078125 247.0390625 C156.04714844 247.76867187 156.79351562 248.49828125 157.5625 249.25 C158.31660156 249.99507812 159.07070313 250.74015625 159.84765625 251.5078125 C161.70650772 253.3431342 163.56987005 255.1736191 165.4375 257 C168.79749018 255.54131246 170.98953106 253.69131052 173.56347656 251.10107422 C174.36400452 250.3003952 175.16453247 249.49971619 175.98931885 248.67477417 C176.84362488 247.81014557 177.69793091 246.94551697 178.578125 246.0546875 C179.46030701 245.1696756 180.34248901 244.2846637 181.25140381 243.37283325 C183.58944543 241.02549869 185.92305874 238.67393215 188.25463867 236.32019043 C190.63746526 233.91686073 193.02600348 231.51922233 195.4140625 229.12109375 C200.09381862 224.41928533 204.76781867 219.71181336 209.4375 215 C207.91578743 211.80740971 206.31833113 209.6239416 203.8125 207.109375 C203.10609375 206.40039062 202.3996875 205.69140625 201.671875 204.9609375 C200.56585938 203.86652344 200.56585938 203.86652344 199.4375 202.75 C198.70015625 202.00492188 197.9628125 201.25984375 197.203125 200.4921875 C196.49671875 199.78835937 195.7903125 199.08453125 195.0625 198.359375 C194.09183594 197.39209473 194.09183594 197.39209473 193.1015625 196.40527344 C190.68373134 194.36345475 189.97427559 194.53357862 187.60250854 196.59448242 Z M-72.1875 261.375 C-72.8155957 261.92373779 -73.44369141 262.47247559 -74.09082031 263.0378418 C-92.98901385 279.78366018 -108.7321158 304.33143978 -111.375 330 C-111.44344175 331.33304154 -111.50707251 332.66635394 -111.5625 334 C-110.39074219 334.02578125 -109.21898437 334.0515625 -108.01171875 334.078125 C-96.07826141 334.46073798 -86.46701928 335.88906308 -76.5625 343 C-75.9025 343 -75.2425 343 -74.5625 343 C-61.98801794 321.04224564 -61.98801794 321.04224564 -49.5625 299 C-45.8022015 299.58107632 -43.03214968 300.65199496 -39.75 302.5625 C-38.95980469 303.01753906 -38.16960937 303.47257812 -37.35546875 303.94140625 C-36.76378906 304.29074219 -36.17210937 304.64007813 -35.5625 305 C-36.15879787 309.26277033 -37.65974435 312.30457791 -39.80859375 316.015625 C-40.13569839 316.58482666 -40.46280304 317.15402832 -40.79981995 317.74047852 C-41.85980913 319.58097319 -42.92968312 321.41549552 -44 323.25 C-44.72906942 324.51107322 -45.45758311 325.77246789 -46.18554688 327.03417969 C-48.30113652 330.69534821 -50.4297728 334.34879425 -52.5625 338 C-53.13500488 338.98097656 -53.70750977 339.96195312 -54.29736328 340.97265625 C-57.03606703 345.65821177 -59.78983773 350.33446253 -62.5625 355 C-62.19898438 355.53367187 -61.83546875 356.06734375 -61.4609375 356.6171875 C-60.95820312 357.36226563 -60.45546875 358.10734375 -59.9375 358.875 C-59.45023438 359.59429687 -58.96296875 360.31359375 -58.4609375 361.0546875 C-56.5625 364 -56.5625 364 -55.45143604 366.42684841 C-52.90775878 371.74244143 -52.90775878 371.74244143 -48.22090721 374.95373726 C-45.29708886 375.34002079 -42.50864004 375.40875093 -39.55932617 375.37329102 C-38.4609996 375.39884567 -37.36267303 375.42440033 -36.23106384 375.45072937 C-32.60447513 375.52016607 -28.98264256 375.51543548 -25.35546875 375.50390625 C-22.82967875 375.52334671 -20.30390504 375.54502125 -17.77815247 375.5688324 C-12.48422554 375.60613436 -7.19203798 375.60539417 -1.89819336 375.57836914 C4.20472427 375.54819054 10.30187204 375.60964361 16.4038046 375.71621948 C22.29254525 375.81525486 28.17904182 375.8301322 34.06848717 375.81254387 C36.56479119 375.81510573 39.06118902 375.84121977 41.55698586 375.89160347 C54.06709843 376.69823052 54.06709843 376.69823052 65.34643173 372.5051384 C68.82074253 368.45535884 70.57211959 363.94321941 72.4375 359 C74.13044739 356.52272034 74.13044739 356.52272034 75.4375 355 C74.26914911 352.95001821 73.10019313 350.90038417 71.93066406 348.85107422 C70.8811471 347.01194891 69.83233493 345.17242125 68.78417969 343.33251953 C65.65265491 337.84460888 62.49337239 332.3743829 59.30078125 326.921875 C58.2684865 325.1532097 57.23671175 323.38424212 56.20510864 321.61517334 C55.19590567 319.88937422 54.17988791 318.16756613 53.16381836 316.44580078 C52.2396814 314.86001221 52.2396814 314.86001221 51.296875 313.2421875 C50.74483398 312.3022998 50.19279297 311.36241211 49.62402344 310.39404297 C48.4375 308 48.4375 308 48.4375 305 C50.2039657 303.9923048 51.97583823 302.99408286 53.75 302 C54.73613281 301.443125 55.72226563 300.88625 56.73828125 300.3125 C59.4375 299 59.4375 299 62.4375 299 C62.83952637 299.72888428 63.24155273 300.45776855 63.65576172 301.20874023 C71.40569412 315.2459573 79.19240055 329.2452341 87.4375 343 C91.18987346 341.54327269 94.71886091 339.87057825 98.27734375 338 C104.16126569 335.2761591 109.42206758 334.61960985 115.8125 334.375 C116.64394531 334.33632813 117.47539062 334.29765625 118.33203125 334.2578125 C120.36685156 334.16425754 122.40214416 334.08107287 124.4375 334 C124.00532743 326.88292515 122.68596145 320.5489084 120.375 313.8125 C119.909729 312.44557007 119.909729 312.44557007 119.43505859 311.05102539 C112.33400804 290.88411272 97.66364166 266.79542714 78.4375 256 C74.51358659 256.13897193 71.17337356 258.77932732 67.875 260.75 C48.56131962 271.97592056 29.08548889 277.41216685 6.6875 277.3125 C6.02730865 277.31034485 5.36711731 277.3081897 4.68692017 277.30596924 C-18.07821719 277.18683592 -42.41545599 271.4610067 -60.85546875 257.23046875 C-65.46145095 253.91036716 -68.7656622 258.36750409 -72.1875 261.375 Z M-124.8984375 361.68359375 C-129.60341545 368.23301141 -129.24854669 375.21033063 -128.5625 383 C-126.01766942 393.13360681 -117.71169604 400.92211533 -110.87890625 408.40234375 C-108.54383202 411.02093458 -106.32745377 413.70676808 -104.125 416.4375 C-100.16645178 421.33524683 -96.00933829 425.97396317 -91.7265625 430.58984375 C-89.87029022 432.65720836 -88.1833858 434.74644587 -86.5625 437 C-81.13256128 436.29866304 -75.84486256 435.23925069 -70.5 434.0625 C-62.55167228 432.34503386 -54.63622748 431.00098416 -46.5625 430 C-48.42248803 423.45678101 -50.56499105 417.13659204 -53.14453125 410.84375 C-53.48119308 410.01597046 -53.81785492 409.18819092 -54.16471863 408.33532715 C-54.87244728 406.60000371 -55.58262321 404.86567647 -56.29516602 403.13232422 C-57.37092984 400.50992188 -58.43285735 397.88219649 -59.49414062 395.25390625 C-66.83319044 377.23846668 -75.72588198 360.87968311 -93.96484375 351.8046875 C-107.0841114 347.74067376 -116.43778603 351.99260851 -124.8984375 361.68359375 Z M92.98828125 361.07421875 C82.38657575 371.09994025 77.17600661 383.62670349 71.8125 396.875 C71.16499399 398.44960212 70.51656083 400.0238233 69.8671875 401.59765625 C62.97454352 415.50197337 62.97454352 415.50197337 59.4375 430 C60.13721924 430.10546143 60.83693848 430.21092285 61.55786133 430.31958008 C64.78962476 430.81056516 68.0197779 431.31147852 71.25 431.8125 C72.35021484 431.97814453 73.45042969 432.14378906 74.58398438 432.31445312 C80.89919341 433.30178669 86.91484273 434.56720619 93.0065918 436.51831055 C95.86087199 437.08389203 97.67102736 436.87820888 100.4375 436 C102.47550343 433.97974406 104.21926021 432.03894369 106 429.8125 C107.05960734 428.53231324 108.11951172 427.25237229 109.1796875 425.97265625 C109.71819336 425.31410645 110.25669922 424.65555664 110.81152344 423.97705078 C113.37208767 420.86361998 115.99803298 417.80740269 118.625 414.75 C119.12281982 414.16686035 119.62063965 413.5837207 120.13354492 412.98291016 C123.12639323 409.48590443 126.19068752 406.07077082 129.3125 402.6875 C137.89130191 393.20566631 141.99766317 385.40264918 141.73828125 372.40625 C141.00707125 364.1255341 136.8515406 359.9875624 130.75390625 354.6640625 C117.70410542 345.28933206 103.83870125 351.88510708 92.98828125 361.07421875 Z M-43.5625 390 C-41.06826671 397.48269986 -38.51281866 404.90935874 -35.70361328 412.27661133 C-35.19123168 413.63822707 -34.69127086 415.00457919 -34.20361328 416.37524414 C-31.5922318 424.41738365 -31.5922318 424.41738365 -26.32202148 430.71166992 C-24.0822402 431.69502801 -21.92596343 432.38493201 -19.5625 433 C-10.27905515 437.88240433 -5.85344395 444.12716815 -2.5625 454 C3.3775 454 9.3175 454 15.4375 454 C16.30375 451.958125 16.30375 451.958125 17.1875 449.875 C20.82641412 441.82909646 24.69939115 437.26545106 32.4375 433 C33.12489258 432.81751709 33.81228516 432.63503418 34.52050781 432.44702148 C38.78614849 431.1435315 40.89210677 429.90457626 43.23803711 426.01367188 C44.92649372 422.15640629 46.40200747 418.27698814 47.8125 414.3125 C48.32127217 412.96047606 48.83297049 411.60954946 49.34765625 410.25976562 C51.87916734 403.5580989 54.17136051 396.79841846 56.4375 390 C23.4375 390 -9.5625 390 -43.5625 390 Z M-47.5 446.6875 C-49.01581665 446.82514771 -49.01581665 446.82514771 -50.56225586 446.96557617 C-64.92425283 448.39825382 -84.55591057 451.02280383 -95.5625 461 C-97.16803944 464.21107887 -97.03719056 467.51670728 -96.5625 471 C-94.77386416 474.16450957 -93.44974476 475.5893602 -90.15551758 477.11401367 C-84.99521755 478.38646925 -79.99563486 478.30516917 -74.69921875 478.30078125 C-72.9793853 478.30720894 -72.9793853 478.30720894 -71.22480774 478.31376648 C-68.80328022 478.31949926 -66.38173549 478.32001781 -63.96020508 478.31567383 C-60.27329795 478.31251993 -56.58719831 478.33596639 -52.90039062 478.36132812 C-50.54166767 478.36360195 -48.18294258 478.36430423 -45.82421875 478.36328125 C-44.73018234 478.372491 -43.63614594 478.38170074 -42.50895691 478.39118958 C-35.8096147 478.35110635 -28.20535595 478.26482211 -22.94242859 473.54804993 C-18.88007393 468.80677197 -18.20652326 465.60253972 -18.28515625 459.5390625 C-18.84038981 454.45593837 -21.54411042 451.85637306 -25.3125 448.6875 C-32.30952198 445.05443089 -39.88113313 445.98734659 -47.5 446.6875 Z M35.8059082 450.45410156 C31.7617246 455.20755055 31.08149891 458.39558242 31.16015625 464.4609375 C31.57126444 468.22460402 32.9203636 470.21790187 35.4375 473 C40.77422582 477.20125224 45.10389927 478.11115833 51.75927734 478.16113281 C52.7974057 478.17074036 53.83553406 478.1803479 54.90512085 478.19024658 C56.01666534 478.19449646 57.12820984 478.19874634 58.2734375 478.203125 C59.42615143 478.20882507 60.57886536 478.21452515 61.76651001 478.22039795 C64.20240362 478.22983309 66.63830992 478.23637602 69.07421875 478.24023438 C72.79189368 478.24994617 76.50901707 478.28098703 80.2265625 478.3125 C82.59635089 478.31902994 84.96614323 478.32428045 87.3359375 478.328125 C88.44343353 478.3404718 89.55092957 478.3528186 90.69198608 478.36553955 C97.54520105 478.34584735 103.00338571 477.99100277 108.375 473.3125 C109.9237632 469.94166245 110.28529982 466.58479138 109.4375 463 C102.81185126 452.67269775 85.68260297 450.83467192 74.48828125 448.34375 C68.28915803 447.16790515 62.03763334 446.62782922 55.75 446.1875 C54.96592773 446.12216064 54.18185547 446.05682129 53.37402344 445.98950195 C47.25823961 445.63666827 40.57136815 446.20704493 35.8059082 450.45410156 Z " fill="#000000" transform="translate(169.5625,10)"/>
<path d="M0 0 C0.73250977 -0.00700928 1.46501953 -0.01401855 2.21972656 -0.02124023 C4.62604382 -0.03875584 7.03117209 -0.02722142 9.4375 -0.01367188 C11.11849186 -0.01636866 12.79948221 -0.02025264 14.48046875 -0.02526855 C17.99754743 -0.03115485 21.5142188 -0.02262896 25.03125 -0.00390625 C29.53052189 0.01888312 34.02883927 0.00575532 38.52807617 -0.01819611 C41.99746847 -0.03267779 45.46663594 -0.02803731 48.93603516 -0.01768494 C50.59456496 -0.01502418 52.25311544 -0.01826444 53.91162109 -0.02760315 C56.23329421 -0.03780834 58.55344011 -0.02221466 60.875 0 C62.19371094 0.00318237 63.51242188 0.00636475 64.87109375 0.00964355 C70.27633345 0.77946839 73.31341584 3.18741187 76.78125 7.29101562 C80.61559979 14.7607631 79.23016599 25.02163376 76.875 32.89257812 C71.54140221 46.73364 61.41928856 56.23519882 48.27734375 62.55664062 C37.27235877 66.71019757 21.85743628 66.17759139 11.04296875 61.84570312 C-1.74025458 55.32951732 -11.53537482 45.5223187 -16.4375 31.89257812 C-17.63008875 27.39359064 -17.9037133 22.90309512 -18 18.26757812 C-18.02239746 17.59388184 -18.04479492 16.92018555 -18.06787109 16.22607422 C-18.04413854 11.17603671 -16.80574258 8.33823661 -13.5625 4.51757812 C-8.94784512 0.82370552 -5.87289697 0.01417274 0 0 Z M-0.5625 16.51757812 C-0.5625 25.38336389 1.47543961 32.32946719 7.59375 38.91601562 C15.858593 46.09522247 23.11822796 47.90211414 33.828125 47.79101562 C42.65236177 47.12251284 49.62700844 43.1286263 55.4375 36.51757812 C60.14165202 29.59007067 61.4375 24.97256889 61.4375 16.51757812 C40.9775 16.51757812 20.5175 16.51757812 -0.5625 16.51757812 Z " fill="#000000" transform="translate(145.5625,191.482421875)"/>
<path d="M0 0 C3.2152367 1.76207153 5.85787102 3.45374933 8.3125 6.1875 C6.77606148 9.86819887 4.53099055 12.17525204 1.6875 14.9375 C0.87023437 15.73671875 0.05296875 16.5359375 -0.7890625 17.359375 C-1.41554687 17.96265625 -2.04203125 18.5659375 -2.6875 19.1875 C-5.18111571 17.98368552 -7.36893083 16.73321278 -9.6875 15.1875 C-15.56826115 14.59096066 -15.56826115 14.59096066 -20.6875 17.1875 C-21.3475 17.8475 -22.0075 18.5075 -22.6875 19.1875 C-26.36819887 17.65106148 -28.67525204 15.40599055 -31.4375 12.5625 C-32.23671875 11.74523437 -33.0359375 10.92796875 -33.859375 10.0859375 C-34.46265625 9.45945313 -35.0659375 8.83296875 -35.6875 8.1875 C-34.21544396 4.35350092 -32.26875389 3.00997836 -28.75 1 C-27.87472656 0.49082031 -26.99945313 -0.01835937 -26.09765625 -0.54296875 C-17.89573449 -4.86326789 -8.12385598 -4.00248514 0 0 Z " fill="#000000" transform="translate(229.6875,146.8125)"/>
<path d="M0 0 C3.2152367 1.76207153 5.85787102 3.45374933 8.3125 6.1875 C6.77606148 9.86819887 4.53099055 12.17525204 1.6875 14.9375 C0.87023437 15.73671875 0.05296875 16.5359375 -0.7890625 17.359375 C-1.41554687 17.96265625 -2.04203125 18.5659375 -2.6875 19.1875 C-5.18111571 17.98368552 -7.36893083 16.73321278 -9.6875 15.1875 C-15.56826115 14.59096066 -15.56826115 14.59096066 -20.6875 17.1875 C-21.3475 17.8475 -22.0075 18.5075 -22.6875 19.1875 C-26.36819887 17.65106148 -28.67525204 15.40599055 -31.4375 12.5625 C-32.23671875 11.74523437 -33.0359375 10.92796875 -33.859375 10.0859375 C-34.46265625 9.45945313 -35.0659375 8.83296875 -35.6875 8.1875 C-34.21544396 4.35350092 -32.26875389 3.00997836 -28.75 1 C-27.87472656 0.49082031 -26.99945313 -0.01835937 -26.09765625 -0.54296875 C-17.89573449 -4.86326789 -8.12385598 -4.00248514 0 0 Z " fill="#000000" transform="translate(149.6875,146.8125)"/>
<path d="M0 0 C5.28 0 10.56 0 16 0 C16 5.28 16 10.56 16 16 C10.72 16 5.44 16 0 16 C0 10.72 0 5.44 0 0 Z " fill="#000000" transform="translate(168,352)"/>
</svg>
